/* XPM */
static char *dc1aeef355e3404fbed503df98ec3bb1jr9PMcVOnFiYNNN2[] = {
/* columns rows colors chars-per-pixel */
"26 34 82 1 ",
"  c None",
". c black",
"X c #3D4D54",
"o c #3F4D55",
"O c #415058",
"+ c #45545C",
"@ c #495863",
"# c #55656F",
"$ c #586973",
"% c #5C6F78",
"& c #5F707B",
"* c #5F717B",
"= c #60717C",
"- c #61737C",
"; c #647782",
": c #657983",
"> c #697C87",
", c #6C7F8A",
"< c #6F848F",
"1 c #70848F",
"2 c #7B8F9A",
"3 c #7C929C",
"4 c #8097A3",
"5 c #8297A3",
"6 c #8397A3",
"7 c #8AA0AC",
"8 c #8BA2AE",
"9 c #8CA3AF",
"0 c #8CA3B0",
"q c #8CA4B0",
"w c #8EA4B2",
"e c #8FA6B2",
"r c #90AAB6",
"t c #94ABB8",
"y c #93ACBB",
"u c #98B0BF",
"i c #98B2C0",
"p c #9AB2C0",
"a c #9BB3C0",
"s c #9EB7C6",
"d c #9FB8C7",
"f c #9FB8C8",
"g c #A0BAC8",
"h c #A3BBCB",
"j c #A3BCCB",
"k c #A3BECC",
"l c #A4BECC",
"z c #A6BECE",
"x c #A6C0CF",
"c c #A6C0D0",
"v c #A7C2D2",
"b c #A8C2D2",
"n c #A8C4D2",
"m c #A8C4D3",
"M c #AAC4D4",
"N c #ABC6D4",
"B c #ABC6D6",
"V c #ACC8D8",
"C c #AEC8D8",
"Z c #AECADA",
"A c #AFCBDB",
"S c #B0CCDB",
"D c #B0CCDC",
"F c #B2CEDE",
"G c #B2CFDE",
"H c #B3CFDF",
"J c #B4CFE0",
"K c #B3D0E0",
"L c #B4D0E0",
"P c #B7D3E3",
"I c #B6D4E4",
"U c #B8D6E6",
"Y c #BBD8E8",
"T c #BBDAEA",
"R c #BFDFEF",
"E c #BFDFF0",
"W c #C0E0F2",
"Q c #C2E0F2",
"! c #C3E2F4",
"~ c #C3E3F4",
"^ c #C3E3F6",
"/ c #C4E4F6",
/* pixels */
"                          ",
"                          ",
"                          ",
"          ......          ",
"        ..^~~~~~..        ",
"       .~~~~~~~~~^.       ",
"      .~~~~~~~~~~~~.      ",
"     .Q//^~~~~~^^//Q.     ",
"     .~/////QW^/////.     ",
"    .9////////^/////9.    ",
"    .t~////////////Qt.    ",
"   .@hU///////////^Ih@.   ",
"   .<nI~//~///^^//~Pn<.   ",
"   .5vAPT~WEEEEQ^TISv5.   ",
"   .5xZHPYRRUIERYLKAl5.   ",
"   .,hMZV.HHPHJH.CZnh<.   ",
"   .OgjVb.ZHHJJA.bVhhO.   ",
"   .Xugll.AHMMHA.llduX.   ",
"    .OwradddffffgureO.    ",
"     .%wwwwwwwwweww%.     ",
"      ..3wwwewwe92..      ",
"       ............       ",
"       .131>;;,131.       ",
"       .#75yiiy47#.       ",
"       .*wvMVVBzw*.       ",
"       .*wlMVVmzw=.       ",
"       .-wixiikiw=.       ",
"       .:wweewwww:.       ",
"       .$93*..=4w$.       ",
"       .+ww.  .79+.       ",
"        ...    ...        ",
"                          ",
"                          ",
"                          "
};
