/* XPM */
static char *_ae3e10c643745a6f9219a1ede95c471UR4wnCQ7xbanhXzf[] = {
/* columns rows colors chars-per-pixel */
"32 32 9 1 ",
"  c #222034",
". c #227956",
"X c #6ABE30",
"o c #37946E",
"O c #CEC63A",
"+ c #5386E2",
"@ c #639BFF",
"# c #BBD3FD",
"$ c white",
/* pixels */
"oooooooooooooooooooooooooooooooo",
"o  oooooooooooooooooooo.oooo.ooo",
" ## ooo..o..oooooooooo.ooooo.ooo",
"o @ oooo.o.ooooooooooo.ooooooooo",
"oo ooooooooooooo..oooooooooooooo",
"ooooo   oooooooo.ooooooooooooooo",
"oo.o @@+ .oooo      ooo.oooooooo",
"oo.oo   o.oo  @@@@@@   o.o.ooooo",
"ooo.oooooo  @@@@@@@@@@@  o.ooooo",
"ooooooOo  @@##@@@@@@@@@@@ oooooo",
"oooooo. @@@####@@@@@@@@@@@ ooooo",
"oooooo @@@@####@@@@@@@@@@@ ooooo",
"ooooo @@@@@####@@@@@@@@@@@@.oooo",
"oooo @@###@@@@@@@@@@@@@@@@@ oooo",
"oooo @@@#@@@@@@@@@@@@@@@@@@  ooo",
"ooo @@@@@@@@@@@@@@@@@@@@@@@@ ooo",
"oo. @@@@@@@@@@@@@@@@@@@@@@@@@ oo",
"oo. @@@@@@@@@@@@$ @@$ @@@@@@@ oo",
"oo @@@@@@@@@@@@@  @@  @@@@@@@ oo",
"oo @@@@@@@@@@@@@  @@  @@@@@@@ oo",
"oo @@@@@@@@@@@@@  @@  @@@@@@@ oo",
"oo @@@@@@@@@@@@@@@@@@@@@@@@@@ oo",
"oo @@@@@@@@@@@@@@@@@@@@@@@@@ ooo",
"oo @@@@@@++++@@@@@@@@@@@@@@@ ooo",
"oo @@@@@+++++++@ @@ @@ @@+@@ ooo",
"oo @@@@++++++++@@  @  @+++@@ ooo",
"ooo @@@@@@@@++++@@@@@@@@@@@ Xooo",
"oooo  @@+++++@@@@@@++++++@@ .ooo",
"oooooo @@@@@@@@@@@@@@@@@@@ .oooo",
"o.ooooo                   oooooo",
"o.ooooooooo.oooooooo.ooooooooooo",
"oooooooooo.ooooooooooooooooooooo"
};
