/* XPM */
static char *ab605070b8c9474dba5e667869384d97MObmtK0ajyDfSEUv[] = {
/* columns rows colors chars-per-pixel */
"32 32 6 1 ",
"  c None",
". c #222034",
"X c #5386E2",
"o c #639BFF",
"O c #BBD3FD",
"+ c white",
/* pixels */
"..                              ",
"OO.                             ",
".o.                             ",
" . ...                          ",
"  .OOo.                         ",
"  .oooX.      .......           ",
"   .o..    ...ooooooo...        ",
"    .    ..ooooooooooooo..      ",
"       ..ooOOOoooooooooooo.     ",
"      .oooOOOOOoooooooooooo.    ",
"     .ooooOOOOOoooooooooooo.    ",
"    .oooooOOOOOooooooooooooo.   ",
"   .ooOOooOOOOoooooooooooooo.   ",
"  .oooOOOoooooooooooooooooooo.  ",
"  .ooooOooooooooooooooooooooo.. ",
" .oooooooooooooooooooooooooooo. ",
" .ooooooooooooooooooooooooooooo.",
" .oooooooooooooo+.ooo+.oooooooo.",
".ooooooooooooooo..ooo..oooooooo.",
".ooooooooooooooo..ooo..oooooooo.",
".ooooooooooooooo..ooo..oooooooo.",
".ooooooooooooooo..ooo..oooooooo.",
".oooooooooooooooooooooooooooooo.",
".ooooooooooooooooooooooooooooo. ",
".oooooooXXXXXooooooooooooooooo. ",
".ooooooXXXXXXXXo.oo.oo.oooXooo. ",
".oooooXXXXXXXXXoo..o..ooXXXooo. ",
" .oooooooooXXXXXooooooooooooo.  ",
"  .ooXXXXXoooXXXXXooXXXXXXXoo.  ",
".  ..ooXXXXXoooooooXXXXXXXoo.   ",
" .   .ooooooooooooooooooooo.    ",
"  ..  .....................     "
};
