/* XPM */
static char *_19797e718274f1fa09205a9b376b4b60AKQZV4N9cXrErTP[] = {
/* columns rows colors chars-per-pixel */
"32 32 10 1 ",
"  c #222034",
". c #245247",
"X c #227956",
"o c #6ABE30",
"O c #37946E",
"+ c #9B973C",
"@ c #C3BB1B",
"# c #CEC63A",
"$ c #FBF236",
"% c #FAF8B8",
/* pixels */
"OOOOOOOOOOOOOOOOOOOOOOOOOOOOOOOO",
"OOOOOOOOOOOOOOOOOOOOOOOXOOOOXOOO",
"OOOOOOOXXOXXOOOOOOOOOOXOOOOOXOOO",
"OOOOOOOOXOXOOOOOOOOOOOXOOOOOOOOO",
"OOOOOOOOOOOOOOOOXXOOOOOOOOOOOOOO",
"OOOOOOOOOOOOOOOOXOOOOOOOOOOOOOOO",
"OOXOOOOOOXOOOOOOOOOOOOOXOOOOOOOO",
"OOXOOOOOOXOOOOOOOOOOOOOOXOXOOOOO",
"OOOXOOOOOOOOOOOOOOOOOOOOXOXOOOOO",
"OOOOOO#OOOOOOO#OOOOOOOOOOOOOOOOO",
"OOOOOOXooOOOooXOOOOOOOOOOOOOOOOO",
"OOOOOOOXooOooXOOOOOOOOOOOOOOOOOO",
"OOOOOOOOXoOoXO     OXXOOOOOXOOOO",
"OOOOOOOOOOOOO @@@%% XOOOOOOXOOOO",
"OOOOOOOOOOOO @@+++@@ OOOOOOOOOOO",
"OOOOOOOOOOOO @+$$$%@ .OOOOOOOOOO",
"OOXOOXOOOOOX @+$$$%@ .OOOOOOOOOO",
"OOXOOXOOOOOX @+$$%%@ .OOOOOOXOOO",
"OOOOOOOOOOOO @@%%%@% .oOOOOXOOOO",
"OOOOOOOOOOOOO @@@@% .oXOOOOOOOOO",
"OOOOOOOOOOOOOO     ..OOOOOOOOOOO",
"OOXOOOOOOOOOOOO.....OOOOOOOOOOOO",
"OOXXOOOOOOOOOOOOOOOOOOOOOOOOOOOO",
"OOOXOOOOOOOXXOOOOOOOOOOXOOOOOOOO",
"OOOOOOoOOOOXOOOOOXOOOOOXOOOOOOOO",
"OOOOOo#oOOOOOOOOOOXOOOOOOOOoOOOO",
"OOOOOXoOOOOOOOOOOOXOOOOOOOo#oOOO",
"OOOOOOXoOOOOOOOOOOOOOOOOOOOoXOOO",
"OOOOOOOOOOOOOOOOOOOOOOOOOOoXOOOO",
"OXOOOOOOOOOOOOOOOOOXXOOOOOOOOOOO",
"OXOOOOOOOOOXOOOOOOOOXOOOOOOOOOOO",
"OOOOOOOOOOXOOOOOOOOOOOOOOOOOOOOO"
};
