/* XPM */
static char *_028c8856c214844f1868c9a3b13b39fYuzUjzXXHOLGr2Q9[] = {
/* columns rows colors chars-per-pixel */
"32 32 6 1 ",
"  c None",
". c #222034",
"X c #9B973C",
"o c #C3BB1B",
"O c #FBF236",
"+ c #FAF8B8",
/* pixels */
"                                ",
"                                ",
"                                ",
"                                ",
"                                ",
"                                ",
"                                ",
"                                ",
"                                ",
"                                ",
"                                ",
"                                ",
"              ....              ",
"             .oo++.             ",
"            .ooXXoo.            ",
"            .oXOO+o.            ",
"            .oXO++o.            ",
"            .oo++o+.            ",
"             .ooo+.             ",
"              ....              ",
"                                ",
"                                ",
"                                ",
"                                ",
"                                ",
"                                ",
"                                ",
"                                ",
"                                ",
"                                ",
"                                ",
"                                "
};
