/* XPM */
static char *ad50f66cd0be41c0bad2ee2c0fa2c2bbGqG6VVZ0nlv35S2d[] = {
/* columns rows colors chars-per-pixel */
"32 32 8 1 ",
"  c #483916",
". c #644F1E",
"X c #227956",
"o c #535858",
"O c #8A6F30",
"+ c #6ABE30",
"@ c #37946E",
"# c #A49268",
/* pixels */
"@@@@@@@@@@@@@oooooo@@@@@@@@@@@@@",
"@@@@@@@@@@oooo....oooo@X@@@@X@@@",
"@@@@@@@Xooo...####...ooo@@@@X@@@",
"@@@@@@@oo..###OO O.##...o@@@@@@@",
"@@@@@ooo.##OOOOOOO.OO###.oo@@@@@",
"@@@@oo.....................o@@@@",
"@@X@o.###.#########..#####.o@@@@",
"@@Xoo.OOO.OOOOOOOO ..OOOOO#.o@@@",
"@@oo.#OOO.OOOOO    .OOOO  O#.o@@",
"@@oo.OOOO.OOO  OOOO.OOOOOOOO.o@@",
"@oo...........................o@",
"@o..#########.#########.#####.o@",
"@o..  OOOOOOO.OOOOOOOOO.OOOO .o@",
"oo..O OO OOOO.OOOOOO OO.OOOO #.o",
"o.O.OOOO OOOO.OOOOOOOOO.OOOOOO.o",
"o..............................o",
"o.###.#########.#########.####.o",
"o.OOO.OOOOOOOOO.OOOOOOOOO.OO  .o",
"oo.OO.OOOOO OOO.OOOOOO OO.OO .oo",
"@o.  .OOOOO  OO.OOOOO  OO.OOO.o@",
"@o............................o@",
"@o.#####.#########.#########.oo@",
"@@o.OOOO.OOOOOOOOO.OOOOOOOOO.o@@",
"@@oo.O O.OOOOOO  O.OOOOOOOO.oo@@",
"@@@oo.  .OOOOOOO O.OOO  OO.oo@@@",
"@@@@o.....................oo@@@@",
"@@@@oo..#########.######..oo+@@@",
"@@@@@ooo.OOOOOOOO.OOOOO.ooo+X@@@",
"@@@@@@@oo..O  OOO.OOO..oo@+X@@@@",
"@X@@@@@@ooo...OOO....ooo@@@@@@@@",
"@X@@@@@@@@oooo....oooo@@@@@@@@@@",
"@@@@@@@@@@X@@oooooo@@@@@@@@@@@@@"
};
