/* XPM */
static char *_fd5308d1315404df50e41722f2b695d2foNvRd2451godts[] = {
/* columns rows colors chars-per-pixel */
"32 32 7 1 ",
"  c black",
". c #202020",
"X c #3F4141",
"o c #227956",
"O c #535858",
"+ c #6ABE30",
"@ c #37946E",
/* pixels */
"@@@@@@@@@@@@@OOOOOO@@@@@@@@@@@@@",
"@@@@@@@@@@OOOOXXXXOOOO@o@@@@o@@@",
"@@@@@@@oOOOXXXX..XXXXOOO@@@@o@@@",
"@@@@@@@OOXXXX.......XXXXO@@@@@@@",
"@@@@@OOOXXX...     .....XOO@@@@@",
"@@@@OOXXX....          .XXXO@@@@",
"@@o@OXX...             ...XO@@@@",
"@@oOOX..                 .XXO@@@",
"@@OOXX.                  ..XXO@@",
"@@OOX..                   ..XO@@",
"@OOXX.                     .XXO@",
"@OXXX.                     ..XO@",
"@OX....                     .XO@",
"OOX.                        .XXO",
"OXX.                        ..XO",
"OX..                         .XO",
"OX..                        ..XO",
"OXX.                        .XXO",
"OOX.                        .XOO",
"@OX.                       ..XO@",
"@OX..                      .XXO@",
"@OXX..                    ..XOO@",
"@@OXX..                  ..XXO@@",
"@@OOXX.                  .XXOO@@",
"@@@OOX..                ..XOO@@@",
"@@@@OXX....           ...XOO@@@@",
"@@@@OOXXXX.          ..XXXOO+@@@",
"@@@@@OOOXX...      ...XXOOO+o@@@",
"@@@@@@@OOXXX........XXXOO@+o@@@@",
"@o@@@@@@OOOXXXX..XXXXOOO@@@@@@@@",
"@o@@@@@@@@OOOOXXXXOOOO@@@@@@@@@@",
"@@@@@@@@@@o@@OOOOOO@@@@@@@@@@@@@"
};
