/* XPM */
static char *fde77db5effc4927b8fdcb4fd19606eayLdVw5fOnHwsEdI3[] = {
/* columns rows colors chars-per-pixel */
"32 32 4 1 ",
"  c #535858",
". c gray46",
"X c #37946E",
"o c #9EA1A1",
/* pixels */
"X                              X",
"   o oo   ooo o   ooo   o    o  ",
" oo..  . ....o.. ..... o.... .. ",
" ....... . ..... ..... ..... .  ",
"  .....    ....   ...   ...  .  ",
"                                ",
"  o   ooo   oo oo   ooo oo   o  ",
"  .. o.... o... .. o...o... o.. ",
" ... ..... .......  ....... ... ",
"  .    ..   .......  .....   .  ",
"                                ",
"  oooo   oooo   ooooo   o   oo  ",
" o..... o..... o... .. o.. o... ",
" ... .. ..  .. .... .. ... .... ",
"  . ..   .. .   .. ..   .    .  ",
"                                ",
"  o  oooo   oooooo   ooo  oooo  ",
" o. o..... o....... o....  .... ",
" .  ...... .......  ...... .... ",
" ..  ....   .....  .. ...   ..  ",
"                                ",
"  oo   oooo   oo oo   o ooo   o ",
" o... o..... o... .. o. .... o. ",
" .... .. ... ...  .. .. .... .  ",
" .... ..   .  .. ... ..... . .. ",
"  ..   .. ...  ....   ....   .  ",
"                                ",
"  o oo   ooo o   ooo o   ooooo  ",
" o.  .. o...o.. o...o.. o...... ",
" ...... .. ...  .. .... .... .. ",
"  ....   .. ..   . ...   .. ..  ",
"X                              X"
};
